<svg width="562" height="563" viewBox="0 0 562 563" fill="none" xmlns="http://www.w3.org/2000/svg">
<rect width="562" height="562.684" fill="#AB5E4F"/>
<path d="M341.879 467.685C358.596 444.234 380.186 414.58 372.005 384.483C368.047 366.083 352.925 353.973 337.124 345.142C319.491 335.927 301.15 328.189 282.247 321.987C249.552 309.877 214.966 292.747 198.219 260.435C188.915 242.153 185.844 221.33 189.536 201.158C197.599 166.719 225.48 138.277 258.501 126.758C230.117 137.391 207.434 159.365 195.945 187.424C188.177 205.617 189.506 226.794 195.325 245.342C208.173 284.388 248.104 303.557 284.108 317.025C303.188 323.493 321.736 331.408 339.634 340.683C356.351 349.809 372.921 363.218 377.115 382.918C385.828 414.964 363.263 446.006 341.909 467.655" fill="white"/>
<path d="M256.374 126.788C231.446 140.493 208.172 159.661 194.143 184.589C180.911 209.783 180.143 239.702 192.046 265.545C203.831 291.802 230.413 306.216 255.754 317.38C272.116 324.439 289.542 330.169 306.23 337.11C316.685 340.979 326.757 345.764 336.356 351.434C372.684 372.641 385.828 416.383 361.786 452.091C351.124 468.542 334.909 480.622 316.065 486.145C297.901 491.934 278.614 491.432 259.948 488.803C211.362 481.803 177.721 451.087 174 401.142C176.54 415.29 181.945 428.758 189.831 440.779C205.662 464.732 233.455 476.487 261.188 479.204C289.601 482.542 321.529 477.964 342.411 457.171C355.229 444.382 364.355 426.661 362.967 408.231C361.697 391.366 353.014 375.919 339.25 366.084C325.664 355.008 308.681 348.392 292.614 341.629C256.906 326.654 212.75 313.068 190.953 278.393C173.114 248.947 172.73 212.057 190.067 182.226C205.573 157.151 230.058 138.986 256.374 126.788Z" fill="white"/>
<path d="M255.343 127.85C225.335 144.183 201.706 168.019 200.377 203.786C199.668 227.946 208.293 252.696 226.693 268.941C257.44 298.89 301.329 303.29 338.337 322.518C374.163 341.509 396.61 364.281 384.855 406.664C382.315 415.407 378.859 423.883 374.577 431.917C368.256 446.064 358.894 458.617 347.168 468.718C354.936 459.473 361.434 449.195 366.484 438.208C371.594 427.28 375.788 415.938 379.037 404.331C388.045 365.403 367.104 347.416 334.468 330.079C304.903 314.721 269.933 309.138 241.697 290.531C209.976 270.536 192.403 241.739 194.618 203.431C197.512 168.196 221.554 138.247 255.343 127.791" fill="white"/>
<path d="M293.324 163.707C283.962 187.512 285.527 210.668 309.303 224.166C315.948 228.389 325.931 232.908 327.142 241.828C322.21 234.444 313.792 233.647 306.202 230.191C277.287 218.849 272.561 185.149 293.324 163.707Z" fill="white"/>
<path d="M299.644 115.18C302.243 114.501 304.399 112.729 305.61 110.337C306.319 108.151 306.407 104.223 307.294 101.683C309.479 95.4507 313.437 90.0162 318.665 85.9994C327.791 77.2569 340.669 69.814 353.989 72.5903L360.103 73.7422L355.436 77.9953C351.774 81.2442 352.276 85.0542 352.571 89.7504L353.132 97.5772C354.225 111.902 348.554 125.931 337.774 135.471L337.626 130.037C341.112 131.927 344.39 134.142 347.462 136.653C356.411 144.922 358.626 157.948 361.491 169.112C365.065 183.673 368.343 198.322 371.74 212.913C374.162 223.516 377.027 235.094 379.714 245.697C381.427 253.288 384.765 260.819 382.372 268.941C379.596 277.654 368.639 280.46 360.723 277.477C356.765 275.646 353.723 272.279 352.365 268.114L354.727 269.384C348.141 271.393 342.116 265.279 341.555 259.047C342.766 264.009 347.787 267.051 352.719 265.811C353.044 265.722 353.398 265.633 353.723 265.515L355.466 265.013C356.322 268.794 358.803 271.984 362.288 273.756C367.9 275.823 376.524 274.021 378.385 267.642C380.275 260.967 376.938 253.583 375.284 246.878L372.242 236.039L366.187 214.36C362.2 199.917 357.681 185.593 353.664 171.15C350.504 160.724 348.968 150.091 342.086 142.028C339.517 139.577 336.681 137.42 333.639 135.56L329.888 132.813L333.491 130.125C341.112 124.07 345.66 114.944 345.896 105.227C347.078 94.7714 341.377 81.0079 351.331 73.2401L352.748 78.6451C341.23 76.0164 330.626 82.337 322.12 89.9276C317.483 93.2355 313.85 97.7544 311.665 103.012C310.424 106.172 310.808 108.653 309.184 112.109C307.057 115.21 303.1 116.45 299.555 115.121" fill="white"/>
</svg>
