<svg width="153" height="87" viewBox="0 0 153 87" fill="none" xmlns="http://www.w3.org/2000/svg">
<g clip-path="url(#clip0_376_67)">
<path d="M44.2944 65.5055C44.2944 60.544 46.7404 58.098 47.6177 58.098C47.8384 58.098 47.9837 58.3188 47.9837 58.5744C47.1587 60.7183 46.7171 62.9899 46.6706 65.2906C46.6706 68.027 47.362 69.4504 48.6402 69.4504C50.2844 69.4504 52.9453 64.7445 52.9453 64.7445C52.9453 64.7445 53.1312 64.454 53.2764 64.454C53.4042 64.4482 53.5204 64.5411 53.5321 64.6747C53.5146 64.7909 53.4798 64.9013 53.4217 65.0001C52.8349 65.9471 50.0636 70.7286 47.6177 70.7286C45.9386 70.7286 44.2944 68.974 44.2944 65.5114M50.4645 52.1894C50.4064 53.0551 49.7789 53.7697 48.9307 53.944C48.3671 53.9266 47.9256 53.456 47.9372 52.8924C47.9372 52.8634 47.9372 52.8401 47.943 52.8111C47.9895 51.8757 48.6402 51.0739 49.5465 50.8416C50.0578 50.8416 50.4587 51.3877 50.4587 52.1894" fill="#AB5E4F"/>
<path d="M55.0947 64.2624C55.1644 68.1318 56.4077 69.8108 57.9764 69.8108C59.9459 69.8108 63.0135 64.7388 63.0135 64.7388C63.0135 64.7388 63.1936 64.4483 63.3446 64.4483C63.4724 64.4425 63.5886 64.5355 63.6003 64.6691C63.5828 64.7853 63.5422 64.8957 63.4899 65.0003C62.9089 65.9473 59.882 71.089 56.9596 71.089C54.9146 71.089 52.7998 68.6779 52.7998 63.571C52.7998 48.1344 57.285 44.05 59.3649 44.05C60.8638 44.05 61.3751 45.3282 61.3751 46.8969C61.3751 53.613 56.7389 61.6015 55.1005 64.2682M55.1005 63.176C56.6691 60.3292 60.4281 52.9216 60.4281 46.7923C60.4281 45.6594 60.1318 44.968 59.4056 44.968C57.8718 44.968 55.1702 50.6268 55.1005 63.176Z" fill="#AB5E4F"/>
<path d="M62.2461 69.7701C62.31 69.4912 62.5192 69.2704 62.7922 69.1891C62.9723 69.1891 63.594 70.7926 65.6042 70.7926C67.0508 70.6822 68.1721 69.4737 68.1605 68.0213C68.1605 65.9065 65.5345 62.258 65.3137 61.4155C64.7676 62.6879 64.1343 63.9196 63.4139 65.099C63.2338 65.3894 63.1582 65.4998 63.013 65.4998C62.9026 65.4998 62.7574 65.3894 62.7574 65.2791C62.7574 65.1338 62.8329 65.0234 63.013 64.7329C63.8438 63.4315 64.5177 62.0372 65.0232 60.5731C64.9302 59.9805 64.8663 59.3821 64.8431 58.7837C64.8431 56.3784 66.557 54.4031 67.1031 54.4031C67.3587 54.4031 67.4343 54.5135 67.4343 54.6936C67.4343 54.8737 66.7022 55.3152 66.7022 57.8309C66.7022 60.3465 70.0254 63.815 70.0254 66.2261C70.0254 69.5841 67.6202 71.3678 65.5345 71.3678C63.4487 71.3678 62.2519 70.0896 62.2519 69.7642" fill="#AB5E4F"/>
<path d="M82.0582 61.9618C82.0582 66.7433 79.2462 70.7927 76.5098 70.7927C74.395 70.7927 72.6812 69.1486 72.6812 66.3773C72.6812 61.5609 76.5505 58.0576 79.0313 58.0576C81.0008 58.0576 82.0582 59.4055 82.0582 61.9618ZM75.1619 66.447C75.1619 68.3061 75.9637 69.5494 77.2767 69.5494C78.9209 69.5494 81.0008 66.081 81.0008 61.9618C81.0008 60.0271 80.414 58.8245 79.2463 58.8245C77.1315 58.8245 75.1619 62.5079 75.1619 66.4528" fill="#AB5E4F"/>
<path d="M98.1158 61.5609C96.9132 61.5609 95.635 64.1869 94.7229 66.1971C93.8108 68.2015 93.4447 69.41 92.9335 69.41C92.3234 69.4506 91.7831 68.9975 91.7308 68.3874C91.7308 67.6961 92.8231 61.0148 92.8231 58.8245C92.8231 57.8775 92.643 57.5463 92.1317 57.5463C90.9988 57.5463 88.7388 62.1826 88.0067 64.2625C87.4374 65.9938 87.1178 67.8006 87.0597 69.6249C87.0597 70.4615 85.9268 71.1239 85.6363 71.1239C85.3458 71.1239 85.2355 71.0483 85.2355 70.8682C85.2355 70.6881 85.3458 70.1769 85.3458 66.5225C85.3458 64.4484 85.1948 62.3743 84.9043 60.3234C84.9973 59.9283 85.311 59.632 85.7061 59.5565C86.9087 59.5565 87.2747 63.6815 87.3096 63.8267C87.4199 63.4607 90.0111 56.5645 92.3118 56.5645C93.6248 56.5645 94.7578 57.6218 94.7578 60.2479C94.6822 61.985 94.5021 63.7163 94.2116 65.4302C94.2116 65.4302 96.2916 60.579 98.662 60.579C101.91 60.579 100.783 67.5508 102.932 67.5508C104.611 67.5508 106.069 65.2908 106.401 64.7447C106.401 64.7447 106.581 64.4542 106.732 64.4542C106.86 64.4484 106.976 64.5413 106.987 64.675C106.97 64.7912 106.929 64.9015 106.877 65.0061C106.29 65.9531 104.652 68.6547 102.061 68.6547C97.6104 68.6547 99.8355 61.5725 98.1216 61.5725" fill="#AB5E4F"/>
<path d="M114.756 69.5201C115.337 70.4787 115.627 71.5767 115.598 72.6922C115.598 78.7867 110.892 83.3126 106.546 83.3126C104.728 83.4462 103.148 82.0751 103.014 80.2624C103.008 80.1753 103.002 80.0823 103.002 79.9952C103.002 76.8172 108.26 73.6102 112.78 70.2521C112.159 68.6079 110.991 67.8468 109.864 67.8468C109.37 67.8991 108.888 68.0328 108.44 68.2477C108.185 68.2593 107.976 68.056 107.964 67.8062C107.964 67.7945 107.964 67.7829 107.964 67.7713C107.964 67.5157 108.621 67.1903 109.463 66.4583C110.852 65.2557 112.966 63.4314 112.966 60.2534C113.048 59.6957 112.664 59.1786 112.106 59.0914C112.031 59.0798 111.95 59.0798 111.874 59.0856C110.34 59.0856 107.278 64.3028 106.802 65.1046C106.622 65.3951 106.546 65.5055 106.401 65.5055C106.291 65.5055 106.146 65.3951 106.146 65.2847C106.146 65.1395 106.221 65.0291 106.401 64.7386C106.947 63.9717 109.87 57.7319 112.716 57.7319C114.396 57.7319 115.342 58.8997 115.342 60.5439C115.342 63.7161 111.113 66.4176 110.271 66.9289C111.88 67.0044 113.379 67.7597 114.396 69.0088C115.993 67.8526 117.353 66.406 118.41 64.7386C118.41 64.7386 118.59 64.4481 118.735 64.4481C118.863 64.4423 118.979 64.5352 118.991 64.6689C118.974 64.7851 118.933 64.8954 118.881 65C117.794 66.7488 116.394 68.2826 114.756 69.5259M112.966 70.9493C108.661 74.2318 103.81 77.2239 103.81 79.8906C103.81 81.2791 104.501 82.261 106.512 82.261C110.015 82.261 113.187 77.77 113.187 72.9188C113.199 72.2565 113.123 71.5942 112.966 70.9493Z" fill="#AB5E4F"/>
<path d="M127.566 61.9618C127.566 66.7433 124.754 70.7927 122.018 70.7927C119.903 70.7927 118.189 69.1486 118.189 66.3773C118.189 61.5609 122.058 58.0576 124.539 58.0576C126.509 58.0576 127.566 59.4055 127.566 61.9618ZM120.67 66.447C120.67 68.3061 121.472 69.5494 122.785 69.5494C124.429 69.5494 126.509 66.081 126.509 61.9618C126.509 60.0271 125.922 58.8245 124.754 58.8245C122.639 58.8245 120.67 62.5079 120.67 66.4528" fill="#AB5E4F"/>
<path d="M135.886 70.3568C134.578 70.4556 133.44 69.4795 133.341 68.1781C133.335 68.1026 133.335 68.0271 133.335 67.9516C133.335 65.2151 135.45 62.3683 135.45 61.7118C135.45 61.0553 134.317 60.6544 133.045 59.7423C132.458 61.6305 131.621 63.4373 130.564 65.1048C130.384 65.3952 130.308 65.5056 130.157 65.5056C130.047 65.5056 129.902 65.3952 129.902 65.2849C129.902 65.1396 129.971 65.0292 130.157 64.7387C130.779 63.7511 132.202 61.2006 132.458 59.3763C131.255 58.4641 129.175 57.0756 129.175 54.5948C129.175 52.3348 130.668 51.167 131.766 51.167C133.19 51.167 134.102 52.5555 134.102 54.3798C134.056 55.5534 133.864 56.7212 133.521 57.8483C135.235 59.202 136.914 60.3291 136.914 61.2064C136.914 62.0836 135.676 64.8201 135.676 67.5914C135.676 68.7243 136.223 69.3053 136.914 69.3053C138.337 69.3053 141.295 64.7445 141.295 64.7445C141.295 64.7445 141.475 64.4541 141.62 64.4541C141.754 64.4424 141.864 64.5412 141.876 64.6748C141.858 64.791 141.817 64.9014 141.765 65.006C141.184 65.953 138.337 70.3684 135.891 70.3684M133.341 54.8214C133.341 53.1075 132.499 51.9048 131.842 51.9048C131.331 51.9048 130.75 52.451 130.75 53.5083C130.75 56.024 133.05 57.5229 133.05 57.5229C133.242 56.634 133.341 55.7335 133.341 54.8214Z" fill="#AB5E4F"/>
<path d="M149.749 76.341C149.685 72.7447 149.354 69.1601 148.761 65.6103C148.761 65.6103 145.258 70.903 142.155 70.903C141.208 70.903 140.221 70.2116 140.221 68.4977C140.221 63.0946 147.152 57.2964 151.132 57.2964C152.09 57.2325 152.927 57.9587 152.991 58.9173C152.991 58.9754 152.991 59.0277 152.991 59.0858C153.066 59.8876 152.706 60.6661 152.044 61.1309C151.823 61.1309 151.753 61.0205 151.753 60.8752C151.986 60.3582 152.096 59.8004 152.084 59.2311C152.084 58.499 151.649 58.1737 150.951 58.1737C147.959 58.1737 142.521 63.8266 142.521 68.428C142.521 69.0845 142.887 69.4505 143.323 69.4505C145.002 69.4505 147.338 66.3132 148.54 64.5238C149.743 62.7344 149.999 62.2638 150.33 62.2638C150.626 62.3219 150.841 62.5833 150.841 62.8854C151.207 67.0104 152.044 69.346 152.044 76.3119C152.044 81.564 149.121 86.2409 144.962 86.2409C143.248 86.2409 142.44 85.1835 142.44 84.9279C142.463 84.7362 142.614 84.5909 142.806 84.5619C143.323 85.108 144.026 85.445 144.776 85.5089C148.389 85.5089 149.737 81.1283 149.737 76.3526" fill="#AB5E4F"/>
<path d="M33.0229 77.834C36.3112 73.221 40.5582 67.3879 38.9489 61.4677C38.1704 57.8482 35.1958 55.4662 32.0875 53.7291C28.619 51.9164 25.0111 50.3942 21.2928 49.1742C14.8614 46.7921 8.05807 43.4224 4.76391 37.0665C2.93381 33.4702 2.32959 29.3743 3.05582 25.4062C4.6419 18.6319 10.1264 13.0371 16.6218 10.7712C11.0385 12.8628 6.57657 17.1853 4.31655 22.7046C2.78857 26.2835 3.05001 30.4491 4.19454 34.0977C6.72182 41.7783 14.5767 45.5488 21.6589 48.1981C25.412 49.4705 29.0606 51.0275 32.5813 52.8518C35.8697 54.647 39.129 57.2847 39.954 61.1598C41.6679 67.4635 37.2292 73.5696 33.0287 77.8282" fill="#AB5E4F"/>
<path d="M16.2036 10.7773C11.3001 13.4731 6.72196 17.2437 3.9623 22.1472C1.3595 27.1029 1.20844 32.9883 3.5498 38.0719C5.86792 43.2368 11.0968 46.072 16.0816 48.2681C19.3002 49.6567 22.728 50.7838 26.0106 52.1491C28.0673 52.9102 30.0484 53.8514 31.9366 54.9669C39.0827 59.1383 41.668 67.7426 36.9389 74.7667C34.8415 78.0028 31.6519 80.379 27.9452 81.4654C24.3722 82.6042 20.5784 82.5054 16.9066 81.9883C7.34942 80.6114 0.732038 74.5692 0 64.7448C0.499645 67.5277 1.56284 70.177 3.11406 72.5416C6.22813 77.2533 11.6952 79.5656 17.1506 80.1001C22.7396 80.7566 29.0201 79.8561 33.1276 75.766C35.6491 73.2504 37.4443 69.7645 37.1712 66.1391C36.9214 62.8217 35.2133 59.7832 32.506 57.8485C29.8334 55.6698 26.4928 54.3684 23.3322 53.038C16.3082 50.0924 7.62249 47.4199 3.33484 40.5992C-0.174295 34.8068 -0.249822 27.5503 3.16054 21.6824C6.2107 16.7498 11.027 13.1768 16.2036 10.7773Z" fill="#AB5E4F"/>
<path d="M16.0003 10.9862C10.0975 14.1991 5.44969 18.8876 5.18825 25.9233C5.04881 30.6757 6.74528 35.5443 10.3648 38.7397C16.4128 44.6309 25.0462 45.4966 32.3259 49.2788C39.3732 53.0145 43.7887 57.4938 41.4764 65.8309C40.9767 67.5507 40.297 69.2181 39.4546 70.7983C38.2113 73.5812 36.3696 76.0504 34.0631 78.0374C35.591 76.2189 36.8692 74.1971 37.8627 72.0358C38.8678 69.8862 39.6928 67.6552 40.3319 65.372C42.1039 57.7146 37.9847 54.1764 31.5648 50.7661C25.7492 47.745 18.8704 46.6469 13.3162 42.9867C7.07644 39.0535 3.6196 33.3889 4.05533 25.8536C4.6247 18.9224 9.35389 13.0313 16.0003 10.9746" fill="#AB5E4F"/>
<path d="M23.4714 18.0396C21.6296 22.7223 21.9376 27.2772 26.6145 29.9323C27.9217 30.7631 29.8854 31.652 30.1236 33.4065C29.1534 31.9541 27.4976 31.7972 26.0044 31.1175C20.3166 28.8865 19.387 22.2575 23.4714 18.0396Z" fill="#AB5E4F"/>
<path d="M24.7152 8.49388C25.2264 8.36026 25.6506 8.01167 25.8888 7.54107C26.0282 7.11114 26.0456 6.33844 26.2199 5.83879C26.6499 4.61292 27.4284 3.54391 28.4567 2.75378C30.2519 1.03407 32.785 -0.430004 35.4053 0.116119L36.6079 0.342702L35.6899 1.17932C34.9695 1.8184 35.0683 2.56786 35.1264 3.49163L35.2368 5.03123C35.4517 7.84899 34.3362 10.6087 32.2157 12.4852L32.1866 11.4162C32.8722 11.7881 33.5171 12.2238 34.1213 12.7176C35.8817 14.3444 36.3174 16.9065 36.8809 19.1026C37.5839 21.9669 38.2288 24.8485 38.897 27.7186C39.3734 29.8043 39.9369 32.0818 40.4656 34.1675C40.8026 35.6606 41.4591 37.1421 40.9885 38.7398C40.4424 40.4537 38.2869 41.0056 36.7299 40.4189C35.9514 40.0586 35.353 39.3963 35.0857 38.5771L35.5505 38.827C34.2549 39.222 33.0697 38.0194 32.9593 36.7935C33.1975 37.7696 34.1852 38.368 35.1554 38.124C35.2193 38.1065 35.2891 38.0891 35.353 38.0659L35.6957 37.9671C35.8642 38.7108 36.3523 39.3382 37.0378 39.6868C38.1417 40.0935 39.8381 39.7391 40.2042 38.4842C40.576 37.1712 39.9195 35.7187 39.5941 34.3999L38.9957 32.2677L37.8047 28.0033C37.0204 25.1623 36.1315 22.3445 35.3413 19.5035C34.7197 17.4526 34.4176 15.3611 33.0639 13.775C32.5584 13.2928 32.0007 12.8687 31.4023 12.5027L30.6644 11.9623L31.3732 11.4337C32.8722 10.2426 33.7669 8.4474 33.8134 6.53597C34.0458 4.4793 32.9245 1.77192 34.8824 0.243935L35.1612 1.30713C32.8954 0.790059 30.8097 2.03336 29.1365 3.52648C28.2243 4.17718 27.5097 5.06609 27.0798 6.10024C26.8358 6.72189 26.9113 7.20991 26.5918 7.88966C26.1734 8.49969 25.3949 8.7437 24.6978 8.48226" fill="#AB5E4F"/>
</g>
<defs>
<clipPath id="clip0_376_67">
<rect width="153" height="86.2409" fill="#AB5E4F"/>
</clipPath>
</defs>
</svg>
