<svg width="609" height="1093" viewBox="0 0 609 1093" fill="none" xmlns="http://www.w3.org/2000/svg">
<path d="M608.46 35.3734C495.472 2.12231 379.718 2.72816 289.174 86.7956C228.473 144.041 189.073 225.471 194.257 309.958C196.072 457.98 292.274 575.666 335.516 712.775C376.456 846.428 375.567 956.708 243.469 1031.52C215.94 1046.67 186.829 1058.94 156.784 1068.12C106.85 1087.25 53.3959 1095.07 0.168577 1091.16C41.6615 1087.52 82.5832 1078.27 121.709 1063.75C160.834 1049.53 198.737 1032.06 234.987 1011.65C351.957 938.577 344.837 843.647 307.632 721.803C273.082 612.275 201.498 513.439 178.116 399.219C149.63 273.118 177.101 160.005 276.005 71.8968C369.066 -7.05871 500.751 -21.5805 608.604 35.2292" fill="#FFF6F4"/>
</svg>
