<svg width="101" height="100" viewBox="0 0 101 100" fill="none" xmlns="http://www.w3.org/2000/svg">
<path d="M15.7474 100C10.4354 100 5.33524 97.333 0.574071 92.0689C0.377826 91.8499 0.268555 91.5657 0.268555 91.2676V1.16463C0.268555 0.521755 0.768088 0 1.38358 0H6.2228C6.65098 0 7.04124 0.256217 7.22633 0.65918L12.4893 12.0912C17.6764 10.0019 42.0019 1.42085 63.9969 13.9616C82.8922 24.7345 95.0884 47.8128 100.255 82.5515C100.349 83.1874 99.9321 83.7837 99.3255 83.8815C98.7055 83.9863 98.1458 83.5437 98.0521 82.9102C93.001 48.9355 81.1884 26.4278 62.9488 16.016C39.2723 2.50628 12.6588 14.5183 12.3911 14.6441C11.8448 14.8957 11.1958 14.6487 10.9371 14.0851L5.52257 2.32926H2.50084V90.7994C6.86506 95.5022 11.3787 97.8198 16.1822 97.6614C22.9995 97.4471 28.1153 92.155 29.2994 90.8204V61.7698C29.2994 61.1758 29.7276 60.675 30.294 60.6121C36.2148 59.9436 40.8088 57.5352 43.9465 53.4566C49.7914 45.8586 48.7188 34.9297 48.7076 34.8202C48.6407 34.182 49.0823 33.6066 49.6933 33.5344C50.2887 33.4645 50.8552 33.9257 50.9243 34.564C50.9734 35.0508 52.1018 46.5713 45.6859 54.9124C42.343 59.2565 37.5841 61.9072 31.5273 62.797V91.7008C31.5273 92.3041 31.0879 92.8002 30.526 92.8585C28.6393 94.8733 23.343 99.7717 16.2469 99.993C16.0797 99.9977 15.9124 100 15.7474 100Z" fill="#F7EFED"/>
</svg>
